<svg width="654" height="607" viewBox="0 0 654 607" fill="none" xmlns="http://www.w3.org/2000/svg">
<path d="M-656 14.2297V30.4594H-650.473C-646.482 30.4594 -643.872 31.6959 -640.495 34.9418C-636.043 39.4243 -636.043 39.5789 -636.043 57.9725C-636.043 74.3568 -636.35 76.8299 -639.267 80.5396C-641.877 83.7855 -643.719 84.5583 -649.245 84.5583H-656V301.727V518.896H-649.859C-645.1 518.896 -642.644 519.823 -639.881 522.915C-636.196 526.779 -636.043 528.015 -636.043 545.482C-636.043 563.875 -636.043 564.03 -640.495 568.512C-643.872 571.758 -646.482 572.995 -650.473 572.995H-656V589.997V607H325.732H1307.46V589.997V572.995H1303.01C1300.71 572.995 1296.87 571.604 1294.57 569.749C1290.58 566.658 1290.58 566.348 1290.58 545.791C1290.58 525.233 1290.58 524.924 1294.57 521.214C1297.03 518.896 1300.56 517.35 1303.01 517.35H1307.46V300.954V84.5583H1302.09C1298.71 84.5583 1295.49 83.3218 1293.65 81.467C1290.89 78.6847 1290.58 76.3662 1290.58 57.6634C1290.58 37.1058 1290.58 36.7967 1294.57 33.7053C1296.87 31.8505 1300.71 30.4594 1303.01 30.4594H1307.46V14.2297V-2.00006H325.732H-656V14.2297ZM-560.974 34.4781L-556.215 38.4969V57.9725C-556.215 75.7479 -556.522 77.7573 -559.592 81.0032C-562.509 84.2492 -564.351 84.5583 -575.865 84.5583C-594.747 84.5583 -594.594 84.7129 -594.594 58.1271C-594.594 36.9512 -594.594 36.7967 -590.602 33.7053C-587.379 31.0777 -584.308 30.4594 -576.018 30.4594C-567.114 30.4594 -564.965 31.0776 -560.974 34.4781ZM-475.773 34.4781C-471.935 38.4969 -471.781 39.1152 -471.781 57.9725C-471.781 75.7479 -472.088 77.7573 -475.159 81.0032C-478.075 84.2492 -479.918 84.5583 -491.431 84.5583C-510.16 84.5583 -510.16 84.5584 -510.16 58.7454C-510.16 38.3424 -510.16 38.0332 -506.169 34.3235C-502.638 30.923 -500.642 30.4594 -490.971 30.4594C-480.992 30.4594 -479.457 30.9231 -475.773 34.4781ZM-394.409 33.7053C-390.418 36.7967 -390.418 37.1058 -390.418 57.6634C-390.418 84.0946 -390.725 84.5583 -409.147 84.5583C-419.893 84.5583 -422.196 84.0946 -425.266 81.1578C-428.643 78.0665 -428.797 76.6753 -428.797 58.2817C-428.797 32.9324 -427.108 30.6139 -408.686 30.4594C-400.703 30.4594 -397.633 31.0777 -394.409 33.7053ZM-312.279 34.6327C-308.134 38.806 -307.98 39.4243 -307.827 57.818C-307.673 74.5114 -307.98 76.9845 -310.743 80.5396C-313.66 84.2492 -314.735 84.5583 -327.169 84.5583C-338.53 84.5583 -340.832 84.0946 -343.903 81.1578C-347.28 78.0665 -347.434 76.6754 -347.434 58.1271V38.4969L-342.675 34.4781C-338.683 30.9231 -336.534 30.4594 -327.169 30.4594C-317.498 30.4594 -316.116 30.923 -312.279 34.6327ZM-229.073 34.9418C-224.621 39.4243 -224.621 39.5789 -224.621 57.9725C-224.621 74.3568 -224.928 76.8299 -227.845 80.5396C-230.762 84.4038 -231.683 84.5583 -244.578 84.5583C-264.075 84.5583 -264.535 83.9401 -264.535 58.1271V38.4969L-259.776 34.4781C-255.785 30.9231 -253.636 30.4594 -244.271 30.4594C-234.446 30.4594 -233.218 30.7685 -229.073 34.9418ZM-146.482 34.4781L-141.723 38.4969V57.9725C-141.723 75.7479 -142.03 77.7573 -145.1 81.0032C-148.017 84.2492 -149.705 84.5583 -161.833 84.5583C-174.575 84.5583 -175.496 84.4038 -178.413 80.5396C-181.33 76.8299 -181.637 74.3568 -181.637 57.9725C-181.637 39.5789 -181.637 39.4243 -177.185 34.9418C-173.04 30.7685 -171.812 30.4594 -161.987 30.4594C-152.622 30.4594 -150.473 30.9231 -146.482 34.4781ZM-64.8113 34.9418C-60.3593 39.4243 -60.3593 39.7335 -60.3593 57.5089C-60.3593 73.2748 -60.8198 76.2117 -63.5831 80.0759C-66.6534 84.4038 -67.114 84.5583 -80.4698 84.5583C-99.9663 84.5583 -100.273 84.2492 -100.273 58.4363V38.4969L-95.5144 34.4781C-91.523 30.9231 -89.3738 30.4594 -80.0093 30.4594C-70.1843 30.4594 -68.9562 30.7685 -64.8113 34.9418ZM13.4817 35.0964C17.9336 39.4244 17.9337 39.7334 17.9337 57.9725C17.9337 74.3568 17.6266 76.8299 14.7098 80.5396C11.793 84.2492 10.7184 84.5583 0.125854 84.5583C-10.0062 84.5583 -11.8484 84.0947 -15.0722 80.6942C-18.7566 77.1391 -18.9101 76.0571 -18.9101 58.2817C-18.9101 39.7335 -18.9101 39.4244 -14.6117 35.0964C-10.6203 31.2322 -9.0851 30.7685 -0.48822 30.6139C8.10866 30.6139 9.6438 31.0777 13.4817 35.0964ZM93.0028 34.4781L97.7618 38.4969V58.1271C97.7618 83.7855 97.1477 84.5583 78.2653 84.5583C59.2294 84.5583 59.3829 84.7129 59.3829 58.1271V36.9512L63.6813 33.7053C66.9052 31.2322 70.1289 30.6139 78.1118 30.4594C86.8621 30.4594 89.0114 31.0776 93.0028 34.4781ZM178.204 34.3235C182.195 38.0332 182.195 38.3423 182.195 58.2817C182.195 84.0946 181.888 84.5583 163.006 84.5583C144.123 84.5583 143.816 84.0946 143.816 58.2817C143.816 38.3423 143.816 38.0332 147.808 34.3235C151.339 30.923 153.334 30.4594 163.006 30.4594C172.677 30.4594 174.673 30.923 178.204 34.3235ZM260.028 34.169L264.173 37.8787L263.712 58.4363C263.252 84.7129 263.252 84.5583 245.444 84.5583C234.084 84.5583 231.781 84.0946 228.711 81.1578C225.333 78.0665 225.18 76.6754 225.18 58.1271V38.4969L229.939 34.4781C233.93 31.0776 236.079 30.4594 245.137 30.4594C254.041 30.4594 256.343 31.0776 260.028 34.169ZM342.005 34.9418C346.457 39.4243 346.457 39.5789 346.457 57.9725C346.457 74.3568 346.15 76.8299 343.233 80.5396C340.316 84.2492 339.395 84.5583 326.807 84.5583C315.447 84.5583 313.144 84.0946 310.074 81.1578C306.697 78.0665 306.543 76.6754 306.543 58.1271V38.4969L311.302 34.4781C315.293 30.9231 317.443 30.4594 326.807 30.4594C336.632 30.4594 337.86 30.7685 342.005 34.9418ZM424.904 34.9418C429.356 39.4243 429.356 39.5789 429.356 57.9725C429.356 74.3568 429.049 76.8299 426.132 80.5396C423.215 84.2492 422.294 84.5583 409.706 84.5583C398.345 84.5583 396.043 84.0946 392.972 81.1578C389.595 78.0665 389.442 76.6754 389.442 58.1271V38.4969L394.2 34.4781C398.192 30.9231 400.341 30.4594 409.706 30.4594C419.531 30.4594 420.759 30.7685 424.904 34.9418ZM507.956 34.6327C512.254 38.806 512.254 38.9606 512.254 58.1271C512.254 75.7479 511.947 77.7573 508.877 81.0032C505.96 84.2492 504.118 84.5583 492.604 84.5583C473.722 84.5583 473.875 84.7129 473.875 58.1271C473.875 36.9512 473.875 36.7967 477.866 33.7053C481.09 31.0777 484.161 30.4594 492.758 30.4594C502.429 30.4594 504.118 30.923 507.956 34.6327ZM589.165 34.9418C593.617 39.4243 593.617 39.5789 593.617 57.9725C593.617 74.3568 593.31 76.8299 590.393 80.5396C587.477 84.2492 586.556 84.5583 573.967 84.5583C562.607 84.5583 560.304 84.0946 557.234 81.1578C553.857 78.0665 553.703 76.6754 553.703 58.1271V38.4969L558.462 34.4781C562.454 30.9231 564.603 30.4594 573.967 30.4594C583.792 30.4594 585.02 30.7685 589.165 34.9418ZM667.305 34.4781L671.91 38.4969V57.9725C671.91 75.7479 671.603 77.7573 668.533 81.0032C665.616 84.0946 663.774 84.5583 653.949 84.5583C637.216 84.5583 636.602 83.6309 636.602 57.6634C636.602 37.2603 636.602 36.7967 640.44 33.8599C646.58 28.9137 661.164 29.3774 667.305 34.4781ZM745.444 32.7779C747.9 34.0144 750.203 36.1784 750.817 37.4149C751.278 38.806 751.738 48.6984 751.738 59.2091C751.738 83.9401 751.278 84.5583 732.549 84.5583C713.667 84.5583 713.359 84.0946 713.359 58.2817C713.359 38.3423 713.359 38.0332 717.351 34.3235C720.882 31.0776 723.031 30.4594 731.321 30.4594C737.001 30.4594 742.988 31.3868 745.444 32.7779ZM832.181 33.7053C836.172 36.7967 836.172 37.1058 836.172 57.6634C836.172 84.0946 835.865 84.5583 817.29 84.5583C798.407 84.5583 797.793 83.7855 797.793 58.2817V38.4969L802.552 34.4781C806.544 31.0776 808.693 30.4594 817.597 30.4594C825.886 30.4594 828.957 31.0777 832.181 33.7053ZM914.465 34.7873L918.763 39.2698L918.303 58.9C917.689 84.2492 917.535 84.5583 899.42 84.5583C888.06 84.5583 885.758 84.0946 882.687 81.1578C879.31 78.0665 879.156 76.6754 879.156 58.1271V38.4969L883.915 34.4781C887.907 30.9231 890.056 30.4594 899.42 30.4594C909.092 30.4594 910.474 30.9231 914.465 34.7873ZM995.675 34.4781L1000.43 38.4969V57.5089C1000.43 74.3568 1000.13 76.8299 997.21 80.5396C994.293 84.2492 993.372 84.5583 980.784 84.5583C969.424 84.5583 967.121 84.0946 964.051 81.1578C960.673 78.0665 960.52 76.6753 960.52 58.5908C960.52 39.5789 960.52 39.4243 964.972 34.9418C969.116 30.7685 970.345 30.4594 980.17 30.4594C989.534 30.4594 991.683 30.9231 995.675 34.4781ZM1078.88 34.9418C1083.33 39.4243 1083.33 39.5789 1083.33 57.9725C1083.33 74.3568 1083.03 76.8299 1080.11 80.5396C1077.19 84.2492 1076.27 84.5583 1063.68 84.5583C1052.32 84.5583 1050.02 84.0946 1046.95 81.1578C1043.57 78.0665 1043.42 76.6754 1043.42 58.1271V38.4969L1048.18 34.4781C1052.17 30.9231 1054.32 30.4594 1063.68 30.4594C1073.51 30.4594 1074.74 30.7685 1078.88 34.9418ZM1161.93 34.6327C1166.23 38.806 1166.23 38.9606 1166.23 58.1271C1166.23 75.7479 1165.92 77.7573 1162.85 81.0032C1159.94 84.2492 1158.09 84.5583 1146.58 84.5583C1127.7 84.5583 1127.85 84.7129 1127.85 58.1271C1127.85 36.9512 1127.85 36.7967 1131.84 33.7053C1135.07 31.0777 1138.14 30.4594 1146.73 30.4594C1156.41 30.4594 1158.09 30.923 1161.93 34.6327ZM1243.14 34.9418C1247.59 39.4243 1247.59 39.5789 1247.59 57.9725C1247.59 74.3568 1247.29 76.8299 1244.37 80.5396C1241.45 84.2492 1240.53 84.5583 1227.94 84.5583C1216.58 84.5583 1214.28 84.0946 1211.21 81.1578C1207.83 78.0665 1207.68 76.6754 1207.68 58.1271V38.4969L1212.44 34.4781C1216.43 30.9231 1218.58 30.4594 1227.94 30.4594C1237.77 30.4594 1239 30.7685 1243.14 34.9418ZM-14.3046 299.409V506.53L-326.709 506.84L-639.113 507.303V299.718V92.2867H-326.709H-14.3046V299.409ZM639.672 299.409V506.53H327.268H14.8633V299.409V92.2867H327.268H639.672V299.409ZM1293.65 299.409V506.53H981.244H668.84V299.409V92.2867H981.244H1293.65V299.409ZM6.11292 518.896C8.56917 518.896 11.9465 520.442 14.0958 522.76C17.7801 526.315 17.9337 527.397 17.9337 545.173C17.9337 563.721 17.9336 564.03 13.4817 568.358C9.6438 572.377 8.10866 572.84 -0.48822 572.84C-9.0851 572.686 -10.6203 572.222 -14.6117 568.358C-18.9101 564.03 -18.9101 563.721 -18.9101 545.173V526.315L-14.3046 521.678C-10.1597 517.659 -8.7781 517.041 -3.8656 517.969C-0.795288 518.432 3.81018 518.896 6.11292 518.896ZM668.533 523.069C671.603 526.47 671.91 528.17 671.91 545.945V564.957L667.305 568.976C661.164 574.077 646.58 574.541 640.44 569.594C636.602 566.658 636.602 566.194 636.602 545.173C636.602 523.842 636.602 523.688 640.747 520.596C644.277 517.659 646.12 517.505 654.87 518.278C663.006 519.05 665.77 519.978 668.533 523.069ZM-559.746 522.296C-556.368 525.388 -556.215 526.779 -556.215 545.173C-556.215 564.339 -556.368 564.957 -560.206 568.976C-563.891 572.531 -565.426 572.995 -575.404 572.995C-584.308 572.995 -587.379 572.377 -590.602 569.749C-594.594 566.658 -594.594 566.503 -594.594 545.173C-594.594 519.051 -594.44 518.896 -575.558 518.896C-565.119 518.896 -562.816 519.36 -559.746 522.296ZM-475.312 522.296C-471.935 525.388 -471.781 526.779 -471.781 545.482C-471.781 564.648 -471.935 565.576 -475.619 569.131C-478.843 572.531 -480.685 572.995 -490.664 572.995C-499.875 572.995 -502.791 572.377 -506.169 569.749C-510.16 566.658 -510.16 566.348 -510.16 546.255C-510.16 527.706 -509.853 525.697 -506.783 522.451C-503.866 519.36 -502.024 518.896 -491.124 518.896C-480.685 518.896 -478.382 519.36 -475.312 522.296ZM-393.949 522.296C-390.571 525.388 -390.418 526.624 -390.418 546.1C-390.418 566.348 -390.418 566.658 -394.409 569.749C-397.787 572.377 -400.703 572.995 -409.914 572.995C-419.893 572.995 -421.735 572.531 -424.959 569.131C-428.643 565.576 -428.797 564.494 -428.797 545.791C-428.797 527.706 -428.49 525.697 -425.42 522.451C-422.503 519.36 -420.661 518.896 -409.761 518.896C-399.322 518.896 -397.019 519.36 -393.949 522.296ZM-312.432 521.987C-309.208 524.924 -309.055 526.624 -309.055 545.945C-309.055 566.348 -309.055 566.658 -313.046 569.749C-316.27 572.377 -319.34 572.995 -328.244 572.995C-337.916 572.995 -339.911 572.531 -343.442 569.131C-347.434 565.421 -347.434 565.112 -347.434 545.327C-347.434 525.542 -347.434 525.233 -343.442 522.142C-337.609 517.505 -317.345 517.505 -312.432 521.987ZM-229.687 522.296C-226.31 525.388 -226.156 526.624 -226.156 546.1C-226.156 566.348 -226.156 566.658 -230.148 569.749C-233.525 572.377 -236.442 572.995 -245.653 572.995C-255.631 572.995 -257.473 572.531 -260.697 569.131C-264.382 565.576 -264.535 564.494 -264.535 545.791C-264.535 527.706 -264.228 525.697 -261.158 522.451C-258.241 519.36 -256.399 518.896 -245.499 518.896C-235.06 518.896 -232.757 519.36 -229.687 522.296ZM-145.561 522.76C-141.876 526.315 -141.723 527.397 -141.723 545.327C-141.723 563.875 -141.876 564.494 -145.868 568.667C-149.705 572.686 -150.78 572.995 -161.833 572.995C-173.193 572.995 -173.807 572.84 -177.645 568.203C-181.483 563.721 -181.637 562.639 -181.637 545.018C-181.637 527.397 -181.483 526.315 -177.799 522.76C-174.421 519.36 -172.886 518.896 -161.68 518.896C-150.473 518.896 -148.938 519.36 -145.561 522.76ZM-64.9648 521.987C-61.741 525.233 -61.5875 526.47 -61.5875 551.355C-61.5875 565.266 -61.741 566.039 -65.7324 569.44C-69.1097 572.531 -71.4124 572.995 -81.2374 572.995C-91.3695 572.995 -93.2117 572.531 -96.4355 569.131C-100.12 565.576 -100.273 564.494 -100.273 545.791C-100.273 527.706 -99.9664 525.697 -96.8961 522.451C-93.9793 519.36 -92.1371 518.896 -80.7769 518.896C-70.0308 518.896 -67.5745 519.36 -64.9648 521.987ZM94.2309 522.296C97.6082 525.388 97.7618 526.779 97.7618 545.482C97.7618 565.112 97.7618 565.421 93.7704 569.131C90.2395 572.531 88.2438 572.995 78.5723 572.995C69.6684 572.995 66.5981 572.377 63.3743 569.749C59.3829 566.658 59.3829 566.348 59.3829 545.945C59.3829 519.669 59.9969 518.896 78.4188 518.896C88.8579 518.896 91.1606 519.36 94.2309 522.296ZM178.664 522.296C182.042 525.388 182.195 526.779 182.195 545.482C182.195 564.648 182.042 565.576 178.357 569.131C175.134 572.531 173.291 572.995 163.313 572.995C154.102 572.995 151.185 572.377 147.808 569.749C143.816 566.658 143.816 566.348 143.816 546.255C143.816 527.706 144.123 525.697 147.194 522.451C150.111 519.36 151.953 518.896 162.852 518.896C173.291 518.896 175.594 519.36 178.664 522.296ZM260.028 522.296C263.405 525.388 263.559 526.624 263.559 546.1C263.559 566.348 263.559 566.658 259.567 569.749C256.19 572.377 253.273 572.995 244.062 572.995C234.084 572.995 232.241 572.531 229.018 569.131C225.333 565.576 225.18 564.648 225.18 545.327C225.18 525.542 225.18 525.233 229.171 522.142C232.548 519.514 235.465 518.896 244.83 518.896C254.655 518.896 256.958 519.36 260.028 522.296ZM342.619 522.76C346.304 526.315 346.457 527.397 346.457 545.173C346.457 563.875 346.457 564.03 342.005 568.512C337.86 572.686 336.632 572.995 326.04 572.995C315.754 572.995 314.219 572.531 310.534 568.976C306.697 564.957 306.543 564.339 306.543 545.636C306.543 527.397 306.697 526.315 310.381 522.76C313.758 519.36 315.293 518.896 326.5 518.896C337.707 518.896 339.242 519.36 342.619 522.76ZM424.443 521.987C427.513 524.924 427.82 526.779 427.82 542.081C427.82 551.201 428.281 559.857 428.741 561.248C429.356 562.793 427.82 565.421 425.057 568.358C420.759 572.686 419.684 572.995 408.938 572.995C398.652 572.995 397.117 572.531 393.433 568.976C389.595 564.957 389.442 564.339 389.442 545.018C389.442 525.542 389.441 525.233 393.433 522.142C399.266 517.505 419.53 517.505 424.443 521.987ZM509.03 522.915C511.947 526.624 512.254 529.097 512.254 545.636C512.254 563.875 512.101 564.494 508.109 568.667C504.271 572.686 503.197 572.995 492.143 572.995C480.937 572.995 480.016 572.686 476.485 568.512C473.108 564.339 472.8 562.639 472.493 545.327C472.186 527.243 472.34 526.47 476.024 522.76C479.555 519.205 481.09 518.896 492.911 518.896C505.039 518.896 506.113 519.205 509.03 522.915ZM589.165 521.833C592.696 524.615 592.85 526.006 593.31 544.245L593.924 563.721L589.319 568.358C585.02 572.686 583.792 572.995 573.2 572.995C563.221 572.995 561.379 572.531 557.695 569.131C553.703 565.421 553.703 565.112 553.703 545.327C553.703 525.542 553.703 525.233 557.695 522.142C563.375 517.659 583.792 517.505 589.165 521.833ZM748.208 522.296C751.585 525.388 751.738 526.779 751.738 545.482C751.738 565.112 751.738 565.421 747.747 569.131C744.216 572.531 742.22 572.995 732.549 572.995C723.645 572.995 720.575 572.377 717.351 569.749C713.359 566.658 713.359 566.348 713.359 546.255C713.359 527.706 713.667 525.697 716.737 522.451C719.654 519.36 721.496 518.896 732.395 518.896C742.834 518.896 745.137 519.36 748.208 522.296ZM832.641 522.296C836.018 525.388 836.172 526.624 836.172 546.1C836.172 566.348 836.172 566.658 832.181 569.749C828.803 572.377 825.886 572.995 816.676 572.995C806.697 572.995 804.855 572.531 801.631 569.131C797.947 565.576 797.793 564.494 797.793 545.791C797.793 527.706 798.1 525.697 801.17 522.451C804.087 519.36 805.929 518.896 816.829 518.896C827.268 518.896 829.571 519.36 832.641 522.296ZM914.004 522.296C917.382 525.388 917.535 526.624 917.535 546.1C917.535 566.348 917.535 566.658 913.544 569.749C910.32 572.377 907.25 572.995 898.346 572.995C888.674 572.995 886.679 572.531 883.148 569.131C879.156 565.421 879.156 565.112 879.156 545.327C879.156 525.542 879.156 525.233 883.148 522.142C886.525 519.514 889.442 518.896 898.806 518.896C908.631 518.896 910.934 519.36 914.004 522.296ZM996.596 522.76C1000.28 526.315 1000.43 527.397 1000.43 545.791V564.957L995.675 568.976C991.53 572.531 989.534 572.995 979.863 572.995C969.731 572.995 968.349 572.686 964.665 568.667C960.673 564.494 960.52 563.875 960.52 545.327C960.52 527.397 960.673 526.315 964.358 522.76C967.735 519.36 969.27 518.896 980.477 518.896C991.683 518.896 993.218 519.36 996.596 522.76ZM1078.73 521.987C1081.34 524.615 1081.8 527.088 1081.8 540.845C1081.8 549.655 1082.26 558.311 1082.72 560.166C1083.49 562.639 1082.41 564.803 1079.03 568.358C1074.74 572.686 1073.66 572.995 1062.91 572.995C1052.63 572.995 1051.09 572.531 1047.41 568.976C1043.57 564.957 1043.42 564.339 1043.42 545.636C1043.42 527.397 1043.57 526.315 1047.26 522.76C1050.63 519.36 1052.17 518.896 1063.38 518.896C1073.66 518.896 1076.12 519.36 1078.73 521.987ZM1163.01 522.915C1165.92 526.624 1166.23 529.097 1166.23 545.945C1166.23 564.339 1166.08 564.957 1162.24 568.976C1158.55 572.531 1157.02 572.995 1147.04 572.995C1138.29 572.995 1135.07 572.377 1132.15 569.904C1128.47 567.121 1128.31 565.885 1127.54 548.728C1126.32 521.524 1127.85 519.051 1147.35 518.896C1159.02 518.896 1160.09 519.205 1163.01 522.915ZM1244.37 522.915C1247.29 526.624 1247.59 529.097 1247.59 545.482C1247.59 563.875 1247.59 564.03 1243.14 568.512C1239 572.686 1237.77 572.995 1227.18 572.995C1216.89 572.995 1215.36 572.531 1211.67 568.976C1207.83 564.957 1207.68 564.339 1207.68 545.636C1207.68 527.397 1207.83 526.315 1211.52 522.76C1214.9 519.205 1216.43 518.896 1228.25 518.896C1240.38 518.896 1241.45 519.205 1244.37 522.915Z" fill="#25282E"/>
</svg>
