<svg width="32" height="30" viewBox="0 0 32 30" fill="none" xmlns="http://www.w3.org/2000/svg">
<path d="M4.67735 16.699C6.49735 16.3142 7.44548 14.4493 6.79486 12.5336C6.22486 10.8533 4.61423 9.69229 2.9986 9.69229C2.77235 9.69229 2.5461 9.71495 2.32298 9.7625C0.502979 10.1473 -0.445145 12.0122 0.204855 13.9279C0.77548 15.6082 2.3861 16.7692 4.0011 16.7692C4.22736 16.7692 4.4536 16.7465 4.67735 16.699ZM2.59923 13.2916C2.41923 12.7613 2.51298 12.3312 2.65985 12.1045C2.76548 11.9425 2.86611 11.921 2.90423 11.9132C2.93423 11.9071 2.96485 11.9038 2.9986 11.9038C3.40611 11.9038 4.12048 12.3439 4.40048 13.1694C4.58048 13.6996 4.48673 14.1303 4.33986 14.3564C4.23423 14.5184 4.13361 14.54 4.0011 14.5571C3.5936 14.5577 2.87985 14.1176 2.59923 13.2916ZM19.9099 11.3847C20.1317 11.4361 20.3567 11.461 20.5824 11.461C22.3224 11.461 24.0961 9.97813 24.7511 7.85339C25.4911 5.45277 24.5236 3.14226 22.5899 2.69166C22.3704 2.64038 22.1443 2.61455 21.9174 2.61481C20.1774 2.61481 18.4036 4.09765 17.7486 6.22293C17.0086 8.62356 17.9761 10.9346 19.9099 11.3847ZM20.1605 6.80512C20.5611 5.5064 21.5174 4.8269 21.9174 4.8269L21.9536 4.83077C22.0086 4.84349 22.1074 4.9231 22.2042 5.07128C22.4592 5.46161 22.6474 6.27269 22.3392 7.27176C21.9399 8.56717 20.988 9.24611 20.5499 9.24611H20.5461C20.4911 9.23339 20.3924 9.15433 20.2955 9.0056C20.0405 8.61527 19.8524 7.80474 20.1605 6.80512ZM29.6767 9.7625C29.4536 9.71495 29.2267 9.69229 29.0011 9.69229C27.3855 9.69229 25.7749 10.8533 25.2049 12.5336C24.5549 14.4493 25.503 16.3142 27.323 16.699C27.5467 16.7465 27.773 16.7692 27.9986 16.7692C29.6142 16.7692 31.2249 15.6082 31.7949 13.9279C32.4449 12.0122 31.4967 10.1473 29.6767 9.7625ZM29.4005 13.2916C29.123 14.1087 28.4211 14.5483 27.9199 14.5483H27.9042C27.8661 14.5405 27.7655 14.519 27.6599 14.357C27.5124 14.1303 27.4192 13.6996 27.5992 13.1699C27.8799 12.3439 28.5936 11.9038 29.0011 11.9038L29.0955 11.9132C29.1336 11.921 29.2342 11.9425 29.3399 12.1045C29.4874 12.3312 29.5805 12.7619 29.4005 13.2916ZM11.4174 11.4615C11.643 11.4615 11.868 11.4366 12.0899 11.3852C14.0236 10.9352 14.9911 8.62411 14.2511 6.22349C13.5961 4.0982 11.8224 2.61536 10.0824 2.61536C9.85673 2.61536 9.63173 2.64024 9.40986 2.69221C7.47611 3.14226 6.50861 5.45332 7.24861 7.85394C7.90361 9.97868 9.67798 11.4615 11.4174 11.4615ZM9.79548 5.07128C9.89236 4.9231 9.99111 4.84349 10.0461 4.83077C10.0536 4.82911 10.0642 4.8269 10.0824 4.8269C10.4824 4.8269 11.4386 5.5064 11.8392 6.80512C12.1474 7.80474 11.9592 8.61527 11.7042 9.0056C11.6074 9.15378 11.5086 9.23339 11.4174 9.24943C11.0174 9.24943 10.0605 8.56993 9.66048 7.2712C9.35236 6.27214 9.54048 5.46161 9.79548 5.07128ZM15.9999 13.2307C11.0367 13.2307 3.99986 20.018 3.99986 24.3023C3.99986 26.2318 5.67548 27.3846 8.48361 27.3846C11.5361 27.3846 13.5517 25.998 15.9999 25.998C18.4692 25.998 20.4905 27.3846 23.5161 27.3846C26.3242 27.3846 27.9999 26.2318 27.9999 24.3023C27.9999 20.018 20.963 13.2307 15.9999 13.2307ZM24.988 24.4582C24.9286 24.5162 24.5067 24.7307 23.5167 24.7307C22.4086 24.7307 21.4355 24.4471 20.308 24.1182C19.0642 23.7555 17.6542 23.3441 16.0005 23.3441C14.3617 23.3441 12.9611 23.7532 11.7255 24.1137C10.5917 24.4449 9.61298 24.7307 8.48423 24.7307C7.49361 24.7307 7.07173 24.5157 7.02298 24.4726C7.01673 24.4598 7.00048 24.4045 7.00048 24.3023C6.99986 21.3128 12.8036 15.8846 15.9999 15.8846C19.1961 15.8846 24.9999 21.3128 24.9999 24.3023C24.9999 24.4029 24.9842 24.4582 24.988 24.4582Z" fill="#25282E"/>
</svg>
